<svg id="visual" viewBox="0 0 960 540" width="960" height="540" xmlns="http://www.w3.org/2000/svg" xmlns:xlink="http://www.w3.org/1999/xlink" version="1.1"><path d="M0 228L20 221.8C40 215.7 80 203.3 120 203C160 202.7 200 214.3 240 213.5C280 212.7 320 199.3 360 198.3C400 197.3 440 208.7 480 209.8C520 211 560 202 600 180.7C640 159.3 680 125.7 720 115.3C760 105 800 118 840 128.2C880 138.3 920 145.7 940 149.3L960 153L960 541L940 541C920 541 880 541 840 541C800 541 760 541 720 541C680 541 640 541 600 541C560 541 520 541 480 541C440 541 400 541 360 541C320 541 280 541 240 541C200 541 160 541 120 541C80 541 40 541 20 541L0 541Z" fill="#374151"></path><path d="M0 324L20 321.5C40 319 80 314 120 313.8C160 313.7 200 318.3 240 306.3C280 294.3 320 265.7 360 247.2C400 228.7 440 220.3 480 232.5C520 244.7 560 277.3 600 276.5C640 275.7 680 241.3 720 231.8C760 222.3 800 237.7 840 242.3C880 247 920 241 940 238L960 235L960 541L940 541C920 541 880 541 840 541C800 541 760 541 720 541C680 541 640 541 600 541C560 541 520 541 480 541C440 541 400 541 360 541C320 541 280 541 240 541C200 541 160 541 120 541C80 541 40 541 20 541L0 541Z" fill="#717885"></path><path d="M0 320L20 327C40 334 80 348 120 343C160 338 200 314 240 321.5C280 329 320 368 360 379.3C400 390.7 440 374.3 480 370.8C520 367.3 560 376.7 600 377.5C640 378.3 680 370.7 720 364.5C760 358.3 800 353.7 840 340.3C880 327 920 305 940 294L960 283L960 541L940 541C920 541 880 541 840 541C800 541 760 541 720 541C680 541 640 541 600 541C560 541 520 541 480 541C440 541 400 541 360 541C320 541 280 541 240 541C200 541 160 541 120 541C80 541 40 541 20 541L0 541Z" fill="#b0b4bc"></path><path d="M0 400L20 405.3C40 410.7 80 421.3 120 418.8C160 416.3 200 400.7 240 402.7C280 404.7 320 424.3 360 440.2C400 456 440 468 480 467.7C520 467.3 560 454.7 600 447C640 439.3 680 436.7 720 431.7C760 426.7 800 419.3 840 422.3C880 425.3 920 438.7 940 445.3L960 452L960 541L940 541C920 541 880 541 840 541C800 541 760 541 720 541C680 541 640 541 600 541C560 541 520 541 480 541C440 541 400 541 360 541C320 541 280 541 240 541C200 541 160 541 120 541C80 541 40 541 20 541L0 541Z" fill="#f3f4f6"></path></svg>